<svg width="1024" height="1024" viewBox="0 0 1024 1024" fill="none" xmlns="http://www.w3.org/2000/svg">
<path d="M364.451 234.786C364.451 237.802 365.356 240.064 367.164 241.572C368.972 242.778 372.589 244.588 378.014 247C381.63 248.207 386.302 250.318 392.028 253.334C402.275 263.588 410.865 277.611 417.796 295.405C425.03 313.199 428.646 314.104 428.646 335.818C429.852 343.358 430.455 352.104 430.455 362.056C430.455 391.008 424.276 418.604 411.919 444.842C399.864 471.08 384.041 490.231 364.451 502.294C356.013 506.517 347.272 509.08 338.231 509.985C329.491 510.889 316.682 511.342 299.804 511.342C293.475 511.342 284.283 509.834 272.228 506.818C259.57 503.802 250.227 502.294 244.199 502.294C236.664 502.294 231.089 501.993 227.472 501.39C224.157 500.786 221.444 499.128 219.335 496.413C217.527 494.001 216.622 489.778 216.622 483.747V474.247H244.199C246.007 466.707 247.514 454.643 248.72 438.056C249.021 429.612 249.172 416.643 249.172 399.151C249.172 381.358 249.323 366.429 249.624 354.365C250.227 342 251.583 329.635 253.693 317.27V299.175V271.881V179.143V105.405C241.336 105.405 231.993 104.349 225.664 102.238C219.636 100.127 216.622 95 216.622 86.8572C220.54 82.9365 226.116 80.5238 233.349 79.6191C240.582 78.4127 250.377 77.8095 262.734 77.8095C293.475 77.8095 317.586 78.8651 335.066 80.9762C352.547 83.0873 365.356 88.2143 373.493 96.3572C374.698 98.7699 375.753 100.881 376.657 102.691C377.863 104.5 378.767 106.159 379.37 107.667C383.891 115.508 387.055 122.445 388.864 128.476C390.973 134.508 392.028 142.199 392.028 151.548C393.535 155.77 394.288 161.048 394.288 167.381C394.288 178.841 391.275 190.905 385.247 203.572C379.521 215.937 372.589 226.342 364.451 234.786ZM308.846 105.405C304.627 109.627 302.065 114.151 301.161 118.976C300.257 123.802 299.804 131.643 299.804 142.5C299.804 159.389 300.257 172.357 301.161 181.405C302.065 190.151 304.627 198.746 308.846 207.191C310.353 208.699 312.011 209.453 313.819 209.453C316.23 209.453 318.641 208.397 321.052 206.286C323.463 203.873 326.326 200.556 329.642 196.334L336.423 188.643C340.642 176.58 343.807 166.175 345.916 157.429C348.327 148.381 349.533 140.238 349.533 133C349.533 125.762 348.327 119.73 345.916 114.905C341.697 110.683 336.272 108.119 329.642 107.214C323.312 106.008 316.381 105.405 308.846 105.405ZM364.451 446.651C368.369 442.731 370.78 437.453 371.685 430.818C372.89 424.485 373.493 417.548 373.493 410.008C378.014 405.183 380.575 402.016 381.178 400.508C382.082 399 382.534 395.985 382.534 391.461C385.247 386.032 386.603 378.191 386.603 367.937C386.603 363.715 385.85 353.762 384.343 338.08C383.137 327.223 382.534 320.286 382.534 317.27L382.987 301.889C382.987 298.27 382.534 313.651 381.63 310.334C380.726 307.016 378.918 302.643 376.205 297.215C376.205 297.215 376.205 297.064 376.205 296.762C376.507 296.159 376.657 295.556 376.657 294.953L375.753 288.167C375.452 287.262 374.548 285.302 373.041 282.286C371.835 279.27 370.328 275.651 368.52 271.429C359.479 262.381 349.684 255.596 339.135 251.072C328.587 246.246 318.49 243.834 308.846 243.834C304.928 248.056 302.366 253.484 301.161 260.119C300.257 266.453 299.804 273.389 299.804 280.929V410.008V474.247C311.86 474.247 321.504 473.643 328.737 472.437C335.971 471.532 341.697 469.12 345.916 465.199L364.451 446.651Z" fill="white"/>
<path d="M542.252 109.929C539.539 117.167 538.183 125.913 538.183 136.167C538.183 144.31 538.936 153.357 540.443 163.31C540.745 165.421 541.197 169.794 541.8 176.429C542.402 182.762 542.553 188.492 542.252 193.619C541.649 212.016 540.443 241.421 538.635 281.834C537.128 316.215 535.772 333.104 534.566 370.199C533.361 407.294 532.758 441.374 532.758 472.437C535.772 475.453 540.594 478.62 547.225 481.937C553.252 484.953 557.622 487.818 560.335 490.532C560.335 493.247 559.732 495.207 558.526 496.413C557.321 497.921 555.211 499.731 552.197 501.842C548.581 503.953 545.266 506.516 542.252 509.532C538.936 508.024 533.21 506.667 525.073 505.461C520.853 505.159 513.771 505.009 503.825 505.009C493.578 505.009 484.989 504.707 478.057 504.104C471.426 503.501 464.947 502.143 458.618 500.032C458.015 499.731 457.111 498.675 455.905 496.866C455.001 495.056 454.549 492.945 454.549 490.532C454.549 487.215 455.905 484.35 458.618 481.937C458.618 479.826 459.07 478.469 459.974 477.866C460.878 477.564 462.385 477.413 464.495 477.413C467.207 477.413 469.166 477.262 470.371 476.961C473.385 475.755 475.495 474.247 476.701 472.437C479.413 469.723 480.769 465.802 480.769 460.675C480.769 458.262 480.468 455.397 479.865 452.08C479.262 449.064 478.81 446.953 478.509 445.747C477.303 440.318 476.701 436.85 476.701 435.342C476.701 425.993 477.002 412.27 477.605 394.175L478.057 354.365C477.755 352.858 477.454 350.143 477.153 346.223C476.851 342 476.701 337.477 476.701 332.651V267.81V109.929C470.974 109.929 466.454 109.476 463.138 108.571C460.124 107.365 458.618 104.651 458.618 100.429V81.881C458.618 79.1667 459.672 77.8095 461.782 77.8095C462.686 77.8095 465.7 78.5635 470.824 80.0714C475.947 81.2778 481.071 81.881 486.194 81.881C489.509 81.881 496.592 81.2778 507.442 80.0714C509.853 79.7699 514.223 79.3175 520.552 78.7143C526.881 78.1111 532.457 77.8095 537.279 77.8095C547.526 77.8095 555.211 79.1667 560.335 81.881C562.746 84.2937 563.951 87.3096 563.951 90.9286C563.951 95.754 561.842 100.127 557.622 104.048C553.704 107.968 548.581 109.929 542.252 109.929Z" fill="white"/>
<path d="M784.236 172.357C779.414 169.643 776.099 165.27 774.291 159.238C772.784 153.206 771.729 145.214 771.126 135.262C769.92 121.992 768.263 112.945 766.153 108.119C744.454 108.119 725.617 109.778 709.644 113.095C693.972 116.111 682.067 123.5 673.93 135.262C673.025 137.373 670.162 143.254 665.34 152.905C660.518 162.254 656.6 171.905 653.586 181.857C650.874 191.81 649.517 201.31 649.517 210.357C649.517 225.738 648.915 248.508 647.709 278.667C647.408 286.207 647.106 295.707 646.805 307.167C646.504 318.326 646.353 312.596 646.353 327.675C646.353 338.834 645.599 351.199 644.093 364.77C642.887 381.056 642.284 393.27 642.284 401.413C642.284 415.286 643.64 427.5 646.353 438.056C648.764 447.405 652.833 454.643 658.559 459.77C664.587 465.199 671.217 469.12 678.45 471.532C685.985 474.247 696.232 476.961 709.192 479.675C719.137 481.786 725.768 483.294 729.083 484.199C742.947 482.088 753.043 476.358 759.372 467.008C765.701 457.961 769.619 447.255 771.126 434.889C772.633 422.524 773.386 406.088 773.386 385.58C773.386 372.008 773.839 358.889 774.743 346.223C772.332 343.508 769.468 342.151 766.153 342.151C764.043 342.151 761.934 342.754 759.824 343.961C758.016 344.865 756.961 345.619 756.66 346.223C753.947 351.651 752.29 359.794 751.687 370.651C750.783 379.397 749.577 386.183 748.07 391.008C746.563 395.532 743.248 399 738.124 401.413C735.713 401.413 733.754 400.81 732.247 399.604C731.042 398.397 729.384 396.286 727.275 393.27C724.864 389.048 722.452 385.731 720.041 383.318C720.041 369.445 720.493 357.231 721.398 346.675C722.603 336.119 725.165 326.921 729.083 319.08C732.398 319.08 736.165 318.929 740.385 318.627C744.906 318.024 748.221 317.723 750.331 317.723C756.961 316.818 763.591 316.365 770.222 316.365C784.387 316.365 795.237 320.135 802.771 327.675C805.484 330.389 806.84 333.556 806.84 337.175C806.84 338.984 806.237 342 805.032 346.223C803.525 349.842 802.771 353.008 802.771 355.723C802.771 367.183 803.223 378.643 804.128 390.104C804.73 404.58 805.032 414.985 805.032 421.318C805.032 445.747 801.114 463.54 793.278 474.699C793.278 477.413 791.922 480.128 789.209 482.842C786.798 485.556 783.031 488.874 777.907 492.794C773.989 495.509 770.071 498.826 766.153 502.747C755.906 507.572 742.344 509.985 725.466 509.985C709.192 509.985 695.177 507.572 683.423 502.747C668.655 496.715 657.052 490.834 648.613 485.104C640.476 479.675 633.243 473.04 626.914 465.199C620.585 457.659 611.844 445.596 600.693 429.008C588.336 393.12 582.158 359.342 582.158 327.675V291.786C582.158 283.04 582.761 274.294 583.966 265.548C585.172 256.802 587.131 244.588 589.843 228.905C590.145 227.699 591.049 223.024 592.556 214.881C594.063 206.738 596.323 199.048 599.337 191.81C601.447 186.984 604.159 178.992 607.474 167.833C610.187 158.183 612.899 150.191 615.612 143.857C618.324 137.524 622.393 131.643 627.818 126.214C631.133 122.897 634.298 118.222 637.311 112.191C640.325 106.159 643.339 101.635 646.353 98.6191C649.065 98.6191 651.778 98.0159 654.49 96.8096C657.504 95.3016 659.765 93.9445 661.271 92.7381C663.08 91.2302 664.285 90.1746 664.888 89.5715C673.025 85.3492 681.163 82.7857 689.3 81.881C697.438 80.6746 707.685 80.0714 720.041 80.0714C721.548 80.0714 723.055 79.9206 724.562 79.6191C726.069 79.3175 727.727 79.0159 729.535 78.7143C736.768 76.9048 742.947 76 748.07 76C754.701 76 760.728 77.3571 766.153 80.0714C770.975 80.0714 776.702 82.1825 783.332 86.4048C789.963 90.3254 793.278 94.3969 793.278 98.6191C795.99 106.762 797.346 115.357 797.346 124.405C797.346 134.357 795.99 144.008 793.278 153.357C790.565 162.405 787.552 168.738 784.236 172.357Z" fill="white"/>
<path d="M320.847 768.818C320.063 768.032 319.356 766.54 318.728 764.341C318.571 763.084 318.493 761.121 318.493 758.451C318.493 755.466 318.336 752.874 318.022 750.675C317.708 748.476 317.002 746.277 315.903 744.078C314.49 742.664 311.979 741.958 308.368 741.958C305.229 741.958 301.54 742.35 297.302 743.136C292.279 743.764 288.747 744.078 286.706 744.078C285.293 746.906 284.587 750.675 284.587 755.388C284.587 759.158 284.979 763.399 285.764 768.111C286.392 773.137 286.706 776.672 286.706 778.714V858.937V898.521V908.417C286.706 911.872 286.471 915.092 286 918.077C285.686 921.533 285.529 924.124 285.529 925.852C285.529 928.837 285.921 931.193 286.706 932.921C287.02 933.706 287.648 934.256 288.59 934.57C289.532 934.884 290.317 935.12 290.944 935.277C291.729 935.434 292.279 935.512 292.593 935.512C295.261 935.827 297.38 936.376 298.95 937.162C300.52 938.104 301.304 939.911 301.304 942.581C300.991 942.895 300.363 943.445 299.421 944.23C298.479 945.016 297.223 945.722 295.654 946.351C294.241 947.136 292.828 947.529 291.415 947.529H247.149C244.952 947.529 243.539 946.665 242.911 944.937C242.44 943.366 242.205 940.932 242.205 937.633C243.932 937.633 246.365 936.848 249.504 935.277C252.643 933.706 255.077 932.921 256.803 932.921L257.039 891.688C257.039 883.206 256.96 877.237 256.803 873.781C256.646 869.226 256.568 862.629 256.568 853.989L256.803 827.722V803.218V793.322C256.803 781.07 256.489 771.488 255.861 764.577C255.39 757.665 254.056 750.832 251.859 744.078C248.091 742.979 244.01 742.429 239.615 742.429H238.438C230.746 742.429 224.389 744.157 219.366 747.612C214.5 750.911 212.066 756.016 212.066 762.927C212.066 764.655 212.302 766.619 212.773 768.818C212.616 769.132 211.988 769.603 210.889 770.232C209.947 770.703 208.927 770.938 207.828 770.938C206.102 770.938 204.532 770.231 203.119 768.818C203.119 766.933 202.805 763.477 202.177 758.451C201.392 751.382 201 747.063 201 745.492C201 740.78 201.706 737.01 203.119 734.182C208.613 731.355 213.872 729.234 218.895 727.821C223.918 726.407 229.804 725.7 236.554 725.7C241.42 725.7 249.504 725.543 260.806 725.229C269.753 724.758 278.387 724.522 286.706 724.522C298.322 724.522 307.976 725.072 315.667 726.171C323.516 727.271 328.46 729.941 330.501 734.182C332.542 739.994 333.562 745.649 333.562 751.147C333.562 756.33 332.542 760.571 330.501 763.87C328.46 767.168 325.243 768.818 320.847 768.818Z" fill="white"/>
<path d="M468.173 743.843C465.976 748.084 464.563 753.189 463.935 759.158C463.464 764.969 463.229 772.745 463.229 782.483V825.365V851.162C463.229 860.744 464.092 873.624 465.819 889.803C467.388 907.396 468.173 920.119 468.173 927.973C469.429 929.229 471.156 930.486 473.353 931.743C474.923 932.842 476.022 933.706 476.65 934.334C477.435 935.12 477.827 936.219 477.827 937.633V947.293C477.827 947.136 477.592 946.743 477.121 946.115C476.65 945.487 476.1 945.173 475.472 945.173C474.688 945.173 473.903 945.565 473.118 946.351C471.077 946.979 469.429 947.293 468.173 947.293C466.918 947.45 466.133 947.529 465.819 947.529H460.168C458.441 947.372 454.674 947.293 448.866 947.293L437.564 947.529C435.68 945.644 434.738 944.23 434.738 943.288C434.738 942.502 435.366 941.481 436.622 940.225C437.878 939.125 438.82 938.261 439.448 937.633C439.448 936.533 439.84 935.591 440.625 934.806C441.41 934.177 442.587 933.47 444.157 932.685C445.726 931.9 446.904 931.193 447.689 930.564C448.473 929.936 448.866 929.072 448.866 927.973C450.279 917.134 450.985 903.94 450.985 888.389C450.985 876.294 450.593 862.629 449.808 847.392C449.18 829.486 448.866 828.978 448.866 820.653C448.866 819.239 448.473 818.14 447.689 817.355C447.061 816.569 446.354 816.098 445.569 815.941C444.785 815.784 444.235 815.705 443.921 815.705C439.84 814.291 434.66 813.585 428.381 813.585C423.358 813.585 417.707 813.977 411.428 814.763C404.208 815.391 399.106 815.705 396.124 815.705C391.728 820.103 388.981 824.659 387.883 829.371C386.941 833.926 386.47 840.68 386.47 849.634V889.567V904.175C387.412 905.746 388.197 907.945 388.824 910.773C388.981 912.029 389.06 913.836 389.06 916.192C389.06 918.548 389.138 920.59 389.295 922.318C389.609 924.046 390.316 925.931 391.414 927.973C393.141 927.973 395.025 928.915 397.065 930.8C399.263 932.842 400.362 934.884 400.362 936.926C400.362 939.282 398.949 941.089 396.124 942.345C392.984 942.345 387.098 942.738 378.464 943.523C372.499 944.152 368.026 944.466 365.043 944.466C359.392 944.466 353.82 943.759 348.326 942.345C348.012 941.874 347.541 940.774 346.913 939.047C346.442 937.319 346.207 935.591 346.207 933.863C346.207 931.35 346.913 929.386 348.326 927.973H357.98V908.888V810.993V801.333V796.62V782.483V777.536C357.195 775.651 356.488 772.98 355.86 769.525C355.704 767.64 355.625 764.655 355.625 760.571C355.625 756.644 355.468 753.424 355.154 750.911C354.84 748.241 354.134 745.885 353.035 743.843C352.721 743.843 352.093 743.764 351.151 743.607C350.367 743.45 349.189 742.979 347.62 742.193C346.207 741.408 344.794 740.308 343.381 738.895C343.067 738.738 342.596 738.188 341.969 737.245C341.498 736.146 341.262 735.046 341.262 733.947C341.262 732.219 341.969 730.648 343.381 729.234H362.689C364.729 729.234 368.104 728.92 372.813 728.292C377.522 727.506 381.682 727.114 385.293 727.114C389.688 727.114 393.298 727.821 396.124 729.234C398.635 729.234 400.833 730.255 402.716 732.297C404.757 734.339 405.777 736.539 405.777 738.895C405.777 741.094 404.365 742.507 401.539 743.136C398.714 743.607 395.339 743.843 391.414 743.843C390.002 745.256 389.295 746.906 389.295 748.79C389.295 749.733 389.609 751.461 390.237 753.974C391.022 758.215 391.414 761.278 391.414 763.163C391.414 765.048 391.1 768.504 390.473 773.53C389.688 777.928 389.295 782.091 389.295 786.018C389.295 790.416 390.002 793.95 391.414 796.62C401.147 798.977 410.722 800.155 420.14 800.155C429.872 800.155 439.448 798.977 448.866 796.62C448.866 785.468 448.552 775.494 447.924 766.697C447.453 757.744 446.119 750.126 443.921 743.843C443.293 742.9 441.959 742.115 439.918 741.486C438.82 741.329 437.015 741.251 434.503 741.251C432.148 741.251 430.265 741.172 428.852 741.015C427.439 740.701 426.184 739.994 425.085 738.895V729.234C432.619 725.622 439.605 723.815 446.04 723.815C448.552 723.815 451.063 724.051 453.575 724.522C456.714 724.836 458.598 724.993 459.226 724.993C460.796 724.993 462.287 724.915 463.7 724.758C465.112 724.601 466.604 724.522 468.173 724.522C470.528 725.622 472.333 727.271 473.589 729.47C474.845 731.512 475.472 733.633 475.472 735.832C475.472 738.031 474.845 739.916 473.589 741.486C472.333 743.057 470.528 743.843 468.173 743.843Z" fill="white"/>
<path d="M532.962 741.958C531.55 745.727 530.843 750.283 530.843 755.623C530.843 759.864 531.236 764.577 532.021 769.76C532.178 770.86 532.413 773.137 532.727 776.593C533.041 779.892 533.119 782.876 532.962 785.547C532.649 795.128 532.021 810.443 531.079 831.491C530.294 849.398 529.588 855.403 528.96 874.724C528.332 894.044 528.018 911.794 528.018 927.973C529.588 929.543 532.099 931.193 535.552 932.921C538.692 934.491 540.968 935.984 542.381 937.397C542.381 938.811 542.067 939.832 541.439 940.46C540.811 941.246 539.712 942.188 538.142 943.288C536.259 944.387 534.532 945.722 532.962 947.293C531.236 946.508 528.253 945.801 524.015 945.173C521.818 945.016 518.129 944.937 512.949 944.937C507.612 944.937 503.138 944.78 499.528 944.466C496.074 944.152 492.699 943.445 489.403 942.345C489.089 942.188 488.618 941.638 487.99 940.696C487.519 939.754 487.284 938.654 487.284 937.397C487.284 935.669 487.99 934.177 489.403 932.921C489.403 931.821 489.638 931.114 490.109 930.8C490.58 930.643 491.365 930.564 492.464 930.564C493.877 930.564 494.897 930.486 495.525 930.329C497.095 929.7 498.193 928.915 498.821 927.973C500.234 926.559 500.94 924.517 500.94 921.847C500.94 920.59 500.783 919.098 500.469 917.37C500.156 915.799 499.92 914.7 499.763 914.071C499.135 911.244 498.821 909.438 498.821 908.652C498.821 903.783 498.978 896.636 499.292 887.211L499.528 866.477C499.371 865.692 499.214 864.278 499.057 862.236C498.9 860.037 498.821 857.681 498.821 855.168V824.187V741.958C495.839 741.958 493.484 741.722 491.758 741.251C490.188 740.622 489.403 739.209 489.403 737.01V727.349C489.403 725.936 489.952 725.229 491.051 725.229C491.522 725.229 493.092 725.622 495.76 726.407C498.429 727.035 501.097 727.349 503.766 727.349C505.493 727.349 509.181 727.035 514.832 726.407C516.088 726.25 518.364 726.014 521.661 725.7C524.957 725.386 527.861 725.229 530.372 725.229C535.709 725.229 539.712 725.936 542.381 727.349C543.637 728.606 544.264 730.177 544.264 732.062C544.264 734.575 543.166 736.853 540.968 738.895C538.927 740.937 536.259 741.958 532.962 741.958Z" fill="white"/>
<path d="M696.198 727.585C696.198 728.999 695.806 730.412 695.021 731.826C694.393 733.24 693.687 734.418 692.902 735.36C692.274 736.146 691.803 736.696 691.489 737.01H681.835C680.423 738.423 679.716 740.073 679.716 741.958C679.716 742.743 680.03 744.392 680.658 746.906C681.443 751.147 681.835 754.21 681.835 756.095V809.579C681.835 866.755 683.091 900.72 685.603 936.691C685.76 940.46 684.818 943.209 682.777 944.937C680.737 946.665 678.225 947.529 675.243 947.529C673.045 947.529 670.847 947.136 668.65 946.351C666.609 945.565 665.039 944.623 663.941 943.523C662.685 939.754 661.194 935.355 659.467 930.329C657.897 925.459 656.092 919.883 654.052 913.6C642.593 879.986 634.509 867.462 629.799 850.812C628.387 845.471 626.268 839.659 623.442 833.376C620.617 826.936 619.047 823.402 618.733 822.774C617.791 820.732 617.085 819.082 616.614 817.826C616.143 816.412 615.829 815.548 615.672 815.234C614.416 812.407 613.474 808.794 612.847 804.396C612.062 800.312 611.198 797.249 610.257 795.207C609.315 793.008 607.51 791.201 604.841 789.788V822.774V847.863V885.798V899.934V923.496C606.882 925.538 608.922 926.795 610.963 927.266C613.161 927.894 615.751 928.208 618.733 928.208C618.733 929.779 618.89 932.135 619.204 935.277C619.518 937.79 619.675 939.518 619.675 940.46C619.675 942.659 619.204 944.309 618.262 945.408C617.477 946.508 615.908 947.058 613.553 947.058L602.957 947.293L571.406 948C570.15 948 569.287 947.45 568.816 946.351C568.502 945.408 568.345 943.916 568.345 941.874C568.345 939.675 568.424 937.947 568.581 936.691L568.816 929.622C569.13 929.779 569.758 930.015 570.7 930.329C571.799 930.643 572.819 930.8 573.761 930.8C575.644 930.8 576.586 929.936 576.586 928.208C578.313 924.595 579.176 919.805 579.176 913.836C579.176 911.323 579.019 907.867 578.705 903.469C578.391 899.385 578.234 896.636 578.234 895.222C578.234 889.724 577.921 881.321 577.293 870.011C576.822 863.1 576.586 857.367 576.586 852.811L576.351 832.198C576.351 828.586 576.037 823.795 575.409 817.826C574.781 811.857 574.467 807.38 574.467 804.396C574.467 803.453 574.075 801.019 573.29 797.092C572.348 793.636 571.877 791.201 571.877 789.788V785.075V770.703C571.877 768.346 571.799 766.697 571.642 765.755L571.406 758.686C571.406 756.173 570.621 753.032 569.052 749.262C567.796 746.12 567.168 743.843 567.168 742.429C562.616 742.429 559.084 741.486 556.573 739.601C554.061 737.717 552.805 735.517 552.805 733.004C552.805 730.648 553.59 728.606 555.16 726.878C556.729 725.15 558.692 724.286 561.046 724.286C562.302 724.286 563.244 724.286 563.872 724.286C564.656 724.129 565.363 724.051 565.991 724.051C567.404 723.737 569.366 723.501 571.877 723.344C572.976 723.187 574.232 723.266 575.644 723.58C577.057 723.737 578.156 723.815 578.941 723.815C582.08 724.129 584.827 724.286 587.182 724.286C589.066 724.286 590.635 724.915 591.891 726.171C593.147 727.428 594.01 728.763 594.481 730.177C595.109 731.591 595.423 732.533 595.423 733.004C601.545 741.958 606.803 751.461 611.198 761.514C615.594 771.41 620.774 784.133 626.739 799.683C631.919 813.349 635.607 822.617 637.805 827.486C639.846 833.926 641.965 839.581 644.162 844.45C646.36 849.163 649.028 841.895 652.168 847.863C652.168 850.063 652.403 852.183 652.874 854.225C653.502 856.11 654.601 858.859 656.171 862.472C656.642 863.414 657.426 865.927 658.525 870.011C659.781 873.938 661.194 878.101 662.763 882.499C664.333 886.74 665.824 889.803 667.237 891.688C667.551 892.159 667.708 892.081 667.708 891.452C667.865 890.981 667.943 890.196 667.943 889.096C667.943 886.74 667.629 881.478 667.002 873.31C666.374 865.142 666.06 859.88 666.06 857.524C666.06 850.455 666.374 850.733 667.002 833.141C667.629 814.292 667.943 799.605 667.943 789.081V784.368C667.943 779.499 667.159 773.137 665.589 765.284C664.019 757.43 663.234 751.147 663.234 746.434C660.252 743.45 657.583 741.172 655.229 739.601C653.031 737.874 650.912 737.01 648.871 737.01C647.93 736.067 646.831 735.203 645.575 734.418C644.476 733.475 643.613 732.612 642.985 731.826C642.514 731.041 642.279 730.098 642.279 728.999C642.279 727.271 642.907 725.15 644.162 722.637C645.575 722.637 646.674 722.873 647.459 723.344C648.401 723.815 650.127 724.051 652.639 724.051C655.621 724.051 657.976 723.894 659.702 723.58C661.586 723.108 662.763 722.794 663.234 722.637C665.118 723.108 667.159 723.344 669.356 723.344C670.926 723.344 673.437 723.187 676.891 722.873C681.757 722.559 685.21 722.48 687.251 722.637C691.803 722.951 694.785 724.601 696.198 727.585Z" fill="white"/>
<path d="M811.445 774.472C808.933 773.059 807.207 770.781 806.265 767.64C805.48 764.498 804.931 760.336 804.617 755.152C803.989 748.241 803.126 743.528 802.027 741.015C790.725 741.015 780.914 741.879 772.595 743.607C764.432 745.178 758.232 749.026 753.994 755.152C753.523 756.252 752.031 759.315 749.52 764.341C747.008 769.21 744.968 774.237 743.398 779.42C741.985 784.604 741.279 789.552 741.279 794.264C741.279 802.275 740.965 814.134 740.337 829.842C740.18 833.769 740.023 838.717 739.866 844.686C739.709 850.498 739.631 844.722 739.631 852.576C739.631 858.388 739.238 864.828 738.453 871.896C737.826 880.378 737.512 886.74 737.512 890.981C737.512 898.207 738.218 904.568 739.631 910.066C740.887 914.935 743.006 918.705 745.988 921.376C749.127 924.203 752.581 926.245 756.348 927.501C760.272 928.915 765.609 930.329 772.359 931.743C777.539 932.842 780.993 933.627 782.719 934.099C789.94 932.999 795.198 930.015 798.495 925.145C801.791 920.433 803.832 914.857 804.617 908.417C805.402 901.976 805.794 893.416 805.794 882.735C805.794 875.666 806.029 868.833 806.5 862.236C805.245 860.822 803.753 860.115 802.027 860.115C800.928 860.115 799.829 860.43 798.73 861.058C797.789 861.529 797.239 861.922 797.082 862.236C795.669 865.063 794.806 869.304 794.492 874.959C794.021 879.514 793.393 883.049 792.608 885.562C791.824 887.918 790.097 889.724 787.428 890.981C786.173 890.981 785.152 890.667 784.367 890.039C783.74 889.41 782.876 888.311 781.777 886.74C780.522 884.541 779.266 882.813 778.01 881.557C778.01 874.331 778.246 867.969 778.717 862.472C779.344 856.974 780.679 852.183 782.719 848.099C784.446 848.099 786.408 848.021 788.606 847.863C790.96 847.549 792.687 847.392 793.786 847.392C797.239 846.921 800.692 846.685 804.146 846.685C811.523 846.685 817.174 848.649 821.099 852.576C822.511 853.989 823.218 855.639 823.218 857.524C823.218 858.466 822.904 860.037 822.276 862.236C821.491 864.121 821.099 865.77 821.099 867.184C821.099 873.153 821.334 879.122 821.805 885.091C822.119 892.63 822.276 898.049 822.276 901.348C822.276 914.071 820.235 923.339 816.154 929.151C816.154 930.565 815.448 931.978 814.035 933.392C812.779 934.806 810.817 936.533 808.149 938.575C806.108 939.989 804.067 941.717 802.027 943.759C796.69 946.272 789.626 947.529 780.836 947.529C772.359 947.529 765.06 946.272 758.938 943.759C751.247 940.617 745.203 937.554 740.808 934.57C736.57 931.743 732.802 928.287 729.506 924.203C726.21 920.276 721.658 913.993 715.85 905.354C709.414 886.661 706.196 869.069 706.196 852.576V836.675C706.196 832.12 706.51 827.565 707.138 823.009C707.766 818.454 708.786 812.093 710.199 803.925C710.356 803.296 710.827 800.862 711.611 796.62C712.396 792.379 713.574 788.374 715.143 784.604C716.242 782.091 717.655 777.928 719.381 772.116C720.794 767.09 722.207 762.927 723.62 759.629C725.032 756.33 727.152 753.267 729.977 750.44C731.704 748.712 733.352 746.277 734.922 743.136C736.491 739.994 738.061 737.638 739.631 736.067C741.043 736.067 742.456 735.753 743.869 735.125C745.439 734.339 746.616 733.633 747.401 733.004C748.343 732.219 748.971 731.669 749.285 731.355C753.523 729.156 757.761 727.821 761.999 727.349C766.237 726.721 771.574 726.407 778.01 726.407C778.795 726.407 779.58 726.328 780.365 726.171C781.15 726.014 782.013 725.857 782.955 725.7C786.722 724.758 789.94 724.286 792.608 724.286C796.062 724.286 799.201 724.993 802.027 726.407C804.538 726.407 807.521 727.506 810.974 729.706C814.427 731.748 816.154 733.868 816.154 736.067C817.567 740.308 818.273 744.785 818.273 749.497C818.273 754.681 817.567 759.707 816.154 764.577C814.741 769.289 813.172 772.588 811.445 774.472Z" fill="white"/>
<path d="M276.649 553.162C275.143 556.202 273.226 558.845 270.898 561.092C269.94 562.018 269.255 562.745 268.844 563.273C268.57 563.802 268.434 564.529 268.434 565.454C268.434 577.878 268.023 578.289 267.201 591.903C266.38 605.385 265.9 595.423 265.763 598.067C264.805 612.209 264.052 611.496 263.504 621.145C263.093 630.662 262.888 622.353 262.888 632.266C262.888 644.69 263.23 655.528 263.915 664.78V665.574C263.915 667.16 264.12 668.019 264.531 668.151C264.942 668.415 266.243 668.614 268.434 668.746C270.351 668.878 271.857 668.878 272.952 668.746C274.185 668.746 275.417 668.746 276.649 668.746C277.06 668.746 277.95 668.746 279.319 668.746C280.825 668.878 282.742 668.878 285.07 668.746H289.589V644.161V627.706C290.821 626.516 292.19 625.921 293.697 625.921C294.792 625.921 295.751 626.186 296.572 626.714C297.394 627.111 297.941 627.441 298.215 627.706C301.638 631.01 303.35 636.694 303.35 644.756C303.35 648.193 303.145 651.695 302.734 655.264C302.46 659.758 302.323 662.93 302.323 664.78C302.323 665.574 302.597 667.028 303.145 669.142C303.829 672.843 304.172 675.09 304.172 675.883C304.172 678.262 303.555 680.047 302.323 681.236C296.024 682.294 289.657 682.888 283.222 683.02C278.977 683.153 272.747 683.219 264.531 683.219C256.452 683.219 249.88 683.285 244.814 683.417C239.747 683.681 234.818 684.276 230.025 685.201C228.519 683.88 227.013 682.822 225.507 682.029C224.001 681.236 222.905 680.509 222.221 679.848C221.673 679.187 221.399 678.196 221.399 676.874C221.399 675.156 222.084 674.033 223.453 673.504C224.959 673.107 227.15 672.909 230.025 672.909C231.942 671.059 233.106 669.076 233.517 666.961C233.928 664.847 234.133 661.344 234.133 656.454C236.05 647.466 237.214 637.354 237.625 626.12C238.173 614.753 238.446 632.234 238.446 617.298V612.936V594.282C238.446 585.162 238.173 589.972 237.625 583.496C237.214 577.019 236.05 571.005 234.133 565.454C234.133 564.265 233.859 563.405 233.312 562.877C232.764 562.348 231.737 561.621 230.231 560.696C228.314 559.638 226.739 558.581 225.507 557.524V549.197H230.025C234.407 549.197 239.816 548.866 246.251 548.205C247.757 548.073 250.428 547.875 254.262 547.611C258.232 547.346 261.793 547.214 264.942 547.214C268.776 547.214 271.583 547.346 273.363 547.611C275.006 547.743 275.965 548.007 276.238 548.404C276.649 548.8 276.786 549.527 276.649 550.585C276.649 551.642 276.649 552.501 276.649 553.162Z" fill="white"/>
<path d="M360.12 562.084C358.888 565.256 358.271 569.089 358.271 573.583C358.271 577.152 358.614 581.117 359.298 585.478C359.435 586.404 359.641 588.32 359.915 591.228C360.188 594.004 360.257 583.906 360.12 586.153C359.846 594.216 359.298 589.079 358.477 606.79C357.792 621.858 357.176 606.888 356.628 623.146C356.081 639.403 355.807 654.339 355.807 667.953C357.176 669.274 359.367 670.662 362.379 672.116C365.118 673.438 367.103 674.693 368.336 675.883C368.336 677.073 368.062 677.932 367.514 678.461C366.966 679.121 366.008 679.914 364.639 680.84C362.995 681.765 361.489 682.888 360.12 684.21C358.614 683.549 356.012 682.954 352.315 682.426C350.398 682.294 347.18 682.227 342.662 682.227C338.006 682.227 334.104 682.095 330.954 681.831C327.942 681.567 324.998 680.972 322.123 680.047C321.849 679.914 321.438 679.452 320.89 678.659C320.479 677.866 320.274 676.94 320.274 675.883C320.274 674.429 320.89 673.173 322.123 672.116C322.123 671.191 322.328 670.596 322.739 670.332C323.149 670.2 323.834 670.134 324.793 670.134C326.025 670.134 326.915 670.067 327.463 669.935C328.832 669.407 329.79 668.746 330.338 667.953C331.571 666.763 332.187 665.045 332.187 662.798C332.187 661.74 332.05 660.485 331.776 659.031C331.502 657.709 331.297 656.784 331.16 656.255C330.612 653.876 330.338 652.356 330.338 651.695C330.338 647.598 330.475 641.584 330.749 633.654L330.954 634.23C330.817 633.569 330.681 632.38 330.544 630.662C330.407 628.811 330.338 626.829 330.338 624.714V600.644V562.084C327.737 562.084 325.683 561.885 324.176 561.489C322.807 560.96 322.123 559.771 322.123 557.92V549.791C322.123 548.602 322.602 548.007 323.56 548.007C323.971 548.007 325.34 548.338 327.668 548.998C329.996 549.527 332.324 549.791 334.651 549.791C336.158 549.791 339.375 549.527 344.305 548.998C345.4 548.866 347.386 548.668 350.261 548.404C353.137 548.139 355.67 548.007 357.861 548.007C362.516 548.007 366.008 548.602 368.336 549.791C369.431 550.849 369.979 552.171 369.979 553.757C369.979 555.871 369.02 557.788 367.103 559.506C365.323 561.225 362.995 562.084 360.12 562.084Z" fill="white"/>
<path d="M481.973 584.685C481.289 584.025 480.672 582.769 480.125 580.918C479.988 579.861 479.919 578.209 479.919 575.962C479.919 573.451 479.782 571.27 479.508 569.419C479.235 567.569 478.618 565.718 477.66 563.868C476.428 562.678 474.237 562.084 471.087 562.084C468.349 562.084 465.131 562.414 461.434 563.075C457.052 563.604 453.972 563.868 452.191 563.868C450.959 566.247 450.343 569.419 450.343 573.385C450.343 576.557 450.685 580.125 451.37 584.091C451.918 588.32 452.191 591.294 452.191 593.012V627.886V643.17V651.497C452.191 654.405 451.986 657.114 451.575 659.626C451.301 662.534 451.164 664.714 451.164 666.168C451.164 668.68 451.507 670.662 452.191 672.116C452.465 672.777 453.013 673.24 453.835 673.504C454.656 673.768 455.341 673.967 455.888 674.099C456.573 674.231 457.052 674.297 457.326 674.297C459.654 674.561 461.503 675.024 462.872 675.685C464.241 676.478 464.926 677.998 464.926 680.245C464.652 680.509 464.104 680.972 463.283 681.633C462.461 682.293 461.366 682.888 459.996 683.417C458.764 684.078 457.532 684.408 456.299 684.408H417.686C415.769 684.408 414.536 683.681 413.989 682.227C413.578 680.906 413.372 678.857 413.372 676.081C414.879 676.081 417.001 675.42 419.74 674.099C422.478 672.777 424.601 672.116 426.107 672.116L426.312 637.421C426.312 630.283 426.244 643.284 426.107 640.376C425.97 636.543 425.901 630.992 425.901 623.722L426.107 603.618V582.999V592.696C426.107 582.386 425.833 586.932 425.285 581.117C424.874 575.301 423.711 569.551 421.794 563.868C418.507 562.943 414.947 562.48 411.113 562.48H410.086C403.377 562.48 397.831 563.934 393.45 566.842C389.205 569.618 387.082 573.913 387.082 579.729C387.082 581.183 387.288 582.835 387.699 584.685C387.562 584.95 387.014 585.346 386.055 585.875C385.234 586.271 384.344 586.47 383.385 586.47C381.879 586.47 380.51 585.875 379.277 584.685C379.277 583.099 379.004 580.192 378.456 575.962C377.771 570.014 377.429 566.379 377.429 565.058C377.429 561.092 378.045 557.92 379.277 555.541C384.07 553.162 388.657 551.378 393.039 550.188C397.42 548.998 402.555 548.404 408.443 548.404C412.688 548.404 419.74 548.271 429.598 548.007C437.403 547.611 444.934 547.412 452.191 547.412C462.324 547.412 470.745 547.875 477.455 548.8C484.301 549.725 488.614 551.972 490.394 555.541C492.174 560.431 493.064 565.19 493.064 569.816C493.064 574.178 492.174 577.746 490.394 580.522C488.614 583.298 485.807 584.685 481.973 584.685Z" fill="white"/>
<path d="M604.325 584.685C603.641 584.025 603.025 582.769 602.477 580.918C602.34 579.861 602.272 578.209 602.272 575.962C602.272 573.451 602.135 571.27 601.861 569.419C601.587 567.569 600.971 565.718 600.012 563.868C598.78 562.678 596.589 562.084 593.44 562.084C590.701 562.084 587.483 562.414 583.786 563.075C579.405 563.604 576.324 563.868 574.544 563.868C573.311 566.247 572.695 569.419 572.695 573.385C572.695 576.557 573.037 580.125 573.722 584.091C574.27 588.32 574.544 591.294 574.544 593.012V627.886V643.17V651.497C574.544 654.405 574.338 657.114 573.928 659.626C573.654 662.534 573.517 664.714 573.517 666.168C573.517 668.68 573.859 670.662 574.544 672.116C574.818 672.777 575.365 673.24 576.187 673.504C577.008 673.768 577.693 673.967 578.241 674.099C578.925 674.231 579.405 674.297 579.678 674.297C582.006 674.561 583.855 675.024 585.224 675.685C586.593 676.478 587.278 677.998 587.278 680.245C587.004 680.509 586.456 680.972 585.635 681.633C584.813 682.293 583.718 682.888 582.349 683.417C581.116 684.078 579.884 684.408 578.652 684.408H540.038C538.121 684.408 536.889 683.681 536.341 682.227C535.93 680.906 535.725 678.857 535.725 676.081C537.231 676.081 539.353 675.42 542.092 674.099C544.83 672.777 546.953 672.116 548.459 672.116L548.664 637.421C548.664 630.283 548.596 643.284 548.459 640.376C548.322 636.543 548.254 630.992 548.254 623.722L548.459 603.618V582.999V592.696C548.459 582.386 548.185 586.932 547.637 581.117C547.227 575.301 546.063 569.551 544.146 563.868C540.86 562.943 537.299 562.48 533.465 562.48H532.438C525.729 562.48 520.183 563.934 515.802 566.842C511.557 569.618 509.435 573.913 509.435 579.729C509.435 581.183 509.64 582.835 510.051 584.685C509.914 584.95 509.366 585.346 508.408 585.875C507.586 586.271 506.696 586.47 505.738 586.47C504.231 586.47 502.862 585.875 501.63 584.685C501.63 583.099 501.356 580.192 500.808 575.962C500.124 570.014 499.781 566.379 499.781 565.058C499.781 561.092 500.397 557.92 501.63 555.541C506.422 553.162 511.009 551.378 515.391 550.188C519.773 548.998 524.907 548.404 530.795 548.404C535.04 548.404 542.092 548.271 551.951 548.007C559.756 547.611 567.287 547.412 574.544 547.412C584.676 547.412 593.097 547.875 599.807 548.8C606.653 549.725 610.966 551.972 612.747 555.541C614.527 560.431 615.417 565.19 615.417 569.816C615.417 574.178 614.527 577.746 612.747 580.522C610.966 583.298 608.159 584.685 604.325 584.685Z" fill="white"/>
<path d="M678.205 553.162C676.699 556.202 674.782 558.845 672.454 561.092C671.496 562.018 670.811 562.745 670.401 563.273C670.127 563.802 669.99 564.529 669.99 565.454C669.99 577.878 669.579 578.289 668.757 591.903C667.936 605.385 667.457 595.423 667.32 598.067C666.361 612.209 665.608 611.496 665.06 621.145C664.65 630.662 664.444 622.353 664.444 632.266C664.444 644.69 664.786 655.528 665.471 664.78V665.574C665.471 667.16 665.677 668.019 666.087 668.151C666.498 668.415 667.799 668.614 669.99 668.746C671.907 668.878 673.413 668.878 674.508 668.746C675.741 668.746 676.973 668.746 678.205 668.746C678.616 668.746 679.506 668.746 680.875 668.746C682.382 668.878 684.299 668.878 686.626 668.746H691.145V644.161V627.706C692.377 626.516 693.747 625.921 695.253 625.921C696.348 625.921 697.307 626.186 698.128 626.714C698.95 627.111 699.498 627.441 699.771 627.706C703.195 631.01 704.906 636.694 704.906 644.756C704.906 648.193 704.701 651.695 704.29 655.264C704.016 659.758 703.879 662.93 703.879 664.78C703.879 665.574 704.153 667.028 704.701 669.142C705.386 672.843 705.728 675.09 705.728 675.883C705.728 678.262 705.112 680.047 703.879 681.236C697.581 682.294 691.213 682.888 684.778 683.02C680.533 683.153 674.303 683.219 666.087 683.219C658.009 683.219 651.436 683.285 646.37 683.417C641.303 683.681 636.374 684.276 631.582 685.201C630.075 683.88 628.569 682.822 627.063 682.029C625.557 681.236 624.461 680.509 623.777 679.848C623.229 679.187 622.955 678.196 622.955 676.874C622.955 675.156 623.64 674.033 625.009 673.504C626.515 673.107 628.706 672.909 631.582 672.909C633.499 671.059 634.662 669.076 635.073 666.961C635.484 664.847 635.689 661.344 635.689 656.454C637.606 647.466 638.77 637.354 639.181 626.12C639.729 614.753 640.003 632.234 640.003 617.298V612.936V594.282C640.003 585.162 639.729 589.972 639.181 583.496C638.77 577.019 637.606 571.005 635.689 565.454C635.689 564.265 635.416 563.405 634.868 562.877C634.32 562.348 633.293 561.621 631.787 560.696C629.87 559.638 628.295 558.581 627.063 557.524V549.197H631.582C635.963 549.197 641.372 548.866 647.807 548.205C649.314 548.073 651.984 547.875 655.818 547.611C659.789 547.346 663.349 547.214 666.498 547.214C670.332 547.214 673.139 547.346 674.919 547.611C676.562 547.743 677.521 548.007 677.795 548.404C678.205 548.8 678.342 549.527 678.205 550.585C678.205 551.642 678.205 552.501 678.205 553.162Z" fill="white"/>
<path d="M802.541 579.531C801.856 578.605 801.24 577.35 800.692 575.764C800.556 574.838 800.487 573.385 800.487 571.402C800.487 569.287 800.35 567.635 800.076 566.445C799.802 565.256 799.186 564.265 798.228 563.472C795.489 562.018 792.682 560.63 789.807 559.308C783.508 559.308 777.962 559.572 773.17 560.101C768.514 560.498 764.338 561.621 760.641 563.472C759.135 564.793 756.328 607.684 757.56 568.626C757.149 570.609 756.944 573.385 756.944 576.953C756.944 583.165 756.807 576.967 756.533 583.576L756.328 589.66C756.328 591.643 756.67 582.999 757.355 588.947C757.903 592.912 758.176 595.688 758.176 597.274C758.176 600.446 757.56 603.222 756.328 605.601C758.245 607.187 761.326 608.244 765.571 608.773C769.952 609.169 775.224 609.368 781.386 609.368C781.386 606.063 781.591 603.288 782.002 601.041C782.549 598.662 783.782 597.472 785.699 597.472C787.753 597.472 789.122 597.67 789.807 598.067C790.491 598.331 791.929 599.455 794.12 601.437C793.435 602.759 793.093 604.213 793.093 605.799C792.956 606.46 792.888 607.583 792.888 609.17C792.888 611.945 793.093 614.853 793.504 617.893C793.778 621.594 793.914 624.237 793.914 625.823C793.914 628.467 793.572 630.516 792.888 631.969C792.34 633.291 791.313 633.952 789.807 633.952C789.396 633.688 788.506 633.159 787.137 632.366C785.767 631.573 784.467 630.582 783.234 629.392C782.002 628.202 781.386 627.013 781.386 625.823V621.66H760.641C759.135 625.889 758.382 631.507 758.382 638.512C758.382 643.006 758.587 647.434 758.998 651.796C759.272 657.083 759.409 642.693 759.409 644.676C759.409 645.205 759.614 639.8 760.025 653.678C760.436 659.494 760.641 664.252 760.641 667.953C766.255 669.803 771.253 670.927 775.635 671.323C780.153 671.72 786.315 671.918 794.12 671.918C796.174 670.993 797.406 669.605 797.817 667.754C798.228 666.565 798.433 664.648 798.433 662.005C798.433 659.229 798.639 657.048 799.049 655.462C799.597 654.008 800.761 652.819 802.541 651.894C806.238 651.894 808.566 653.678 809.524 657.247C810.483 660.947 810.962 665.838 810.962 671.918C810.962 673.768 810.277 675.487 808.908 677.073C807.676 678.791 805.553 681.17 802.541 684.21H781.386C767.419 684.21 755.506 683.946 745.648 683.417C735.926 683.021 725.519 681.897 714.428 680.047V671.918H731.27C732.502 664.913 733.119 657.247 733.119 648.92C733.119 644.294 732.845 649.699 732.297 639.918C731.612 631.327 731.27 641.354 731.27 633.952V625.823V585.18V587.145V563.472H714.428V555.343C720.179 553.889 728.805 552.501 740.307 551.179C751.262 549.858 759.409 548.536 764.749 547.214H806.649C806.923 547.478 807.402 548.007 808.087 548.8C808.771 549.461 809.387 550.452 809.935 551.774C810.62 552.964 810.962 554.153 810.962 555.343C810.962 556.929 811.304 559.176 811.989 562.084C812.674 566.71 813.016 569.485 813.016 570.411C813.016 573.318 812.263 575.565 810.757 577.151C809.25 578.738 806.512 579.531 802.541 579.531Z" fill="white"/>
</svg>
